<svg xmlns="http://www.w3.org/2000/svg" width="400" height="400" viewBox="0 0 400 400"><title>Twitter</title><path d="M0,0V219.23L15.86,213C31.7,175.68,71.77,81.23,89.72,37.43c2.19-5.32,9.1-6.68,11.81.92,23.64,66.18,25.81,71.54,48.1,122.41a6.51,6.51,0,0,1-3.24,8.2c-.78.38-6.59,2.43-6.64,2.45-18,5.93-69.28,25.5-116.28,43.59-3.39,8.36-5.43,13.46-5.57,13.87v0h0c-.34,1-.66,1.94-.94,2.88A1.67,1.67,0,0,0,19,234c6.07-2.07,15.64-5.28,19.55-6.68,3.15-1.13,103.74-41.62,114-46.07,9-3.87,18.39-10.18,22-10.18a6.67,6.67,0,0,1,6.61,7.31c-.19,2-2.26,5.93-7.88,17.19-6.44,12.86-5.95,14.64-7.32,20.5-.56,2.37-1,4.24-2.43,5.72-4.41,4.56-9.79.05-16.56-2.38-1.17-.43-6.5-2.28-7.75-2.28-.82,0-1.45,1.42-.74,2,9.07,7,11.95,9.83,21.28,15.33,1.28.76,2.81,1.92,4.19,1.92,1.74,0,1.94-.85,10.65-12.63,45.64-61.71,50.41-68.16,78.32-114,5.84-9.58,16.08-3.52,10.86,5.39-23.88,40.88-30.63,51.74-46,83.21a1,1,0,0,0,1.5,1.2c18.75-13.9,21.57-25,28.41-25a6.68,6.68,0,0,1,6.56,7.49,8.47,8.47,0,0,1-1,3c-5.67,10.35-8.38,17.71-13.75,40.34a1,1,0,0,0,1.59,1c32.64-23.16,35.16-34.51,46.83-47.78,4.47-5.08,15.16.26,8.12,9.57-3.92,5.18-5.87,8.45-7.92,14.32-.17.48,0,1,.53.59,26.12-20.33,27.44-29.65,33.64-29.65a6.53,6.53,0,0,1,5.84,9c-6.44,15-9.14,19.8-14.91,43.1-.17.65.43,1.4.88,1.2,4-1.68,22.13-18.58,33.91-31.29,5.77-6.22,8.71-11.49,14.41-17.49,4.73-5,13.91.28,11.06,6.59-8.57,19-11,26.05-12.21,31.87a1,1,0,0,0,1.14,1.18c10.37-2.52,15.39-5,23.1-9.32a5.77,5.77,0,0,1,7.7,1.52c2.42,3.64-.28,8.07-1.13,9.68-2.15,4.08-3.45,6.54-4.22,8l-.09,0L386,231.33,400,226V0Z"/><path d="M139.11,158.35C123.11,111.44,114.55,90.4,97.54,52c-1.36-3.1-3.82-2.71-5.12.13C72,96.5,40.54,173,25.9,209c41.88-16.59,86.65-34.63,112.36-46.11C140.05,162.1,140.15,161.39,139.11,158.35Z"/><path d="M210.9,309c51.76,23.48,57.63,26.64,110.65,47.66a3.33,3.33,0,0,0,3.75-1.27c21.47-46.17,33.55-72.33,44.79-100.84h0l5.49-13.88c-56.26,22.14-123.52,48.72-164.74,65.6A1.42,1.42,0,0,0,210.9,309Z"/><path d="M381.14,241.91c-.7,1.3-1.3,2.75-2,4.39-39.79,96.52-15.71,37.93-48.42,117.79a5.16,5.16,0,0,1-4.95,2.87c-3.36,0-35.9-16.17-126-53.47-7.15-3-6.45-8.88-.51-11.1,47.92-17.9,120.42-45.62,178.71-68l3.18-8,.19-.45q.43-1,.81-2.1l.09-.22h0a27,27,0,0,0,1.05-3.62,2.45,2.45,0,0,0-2.85-2.55c-9,1.65-12.72,3.88-19.86,8.46-6.49,4.15-11.74-.4-8.94-6.11,5.56-11.39,7.77-15.62,11.08-29a.91.91,0,0,0-.87-1.11c-1.28,0-27.05,24-48.34,49.34-3.69,4.38-9,3.88-11.1.58-4.44-6.93,8.57-16.11,15-50.59a.87.87,0,0,0-1.35-.93c-24.66,15.22-26.9,29.29-33.86,29.29-4.88,0-8.41-4.69-4.86-9.64a49.89,49.89,0,0,0,6.76-12.38,1,1,0,0,0-1.46-1.15c-21.39,16.11-40.55,43.85-44.79,46.1a6.67,6.67,0,0,1-9.43-8c6-17,11.36-25.2,14.95-41.56a1.63,1.63,0,0,0-2.56-1.66c-14.12,10.28-15.89,14.26-23.54,22.3-2,2.16-3,3.31-5,3.91a6.66,6.66,0,0,1-7.64-9.71c23.37-39,28.4-46.42,40.77-71.83.71-1.47-.66-2.21-1.76-.54-1.43,2.15-73.87,110.28-73.91,110.32a6.51,6.51,0,0,1-5.42,2.81c-3.05,0-4.52-1.22-12.15-9.35-8.43-9-13.94-11.52-22.07-17-4.39-3-2.35-10,3-10,2.55,0,5.36,1.73,11,3.15a51.55,51.55,0,0,0,9.79,1.39,6.93,6.93,0,0,0,5.94-3.39c4.35-7.34,5.92-12.29,8.79-22,1.34-4.53,1.79-5.07,1-6.08a2.58,2.58,0,0,0-2.54-1,118.43,118.43,0,0,0-12.57,4.23c-5.25,2-105,42.31-113.92,46.35-14.37,6.52-25.31,12.86-29.34,12.86-4.95,0-8.26-3.86-5.82-8.74,1-2.1,2.44-5.17,3.71-8.14h0s1.51-3.53,4.12-9.68L0,224.05V400H400V231l-16.89,6.63Z"/><path d="M387.82,227.48l.09,0c.77-1.51,2.07-4,4.22-8,.85-1.61,3.55-6,1.13-9.68a5.77,5.77,0,0,0-7.7-1.52c-7.71,4.31-12.73,6.8-23.1,9.32a1,1,0,0,1-1.14-1.18c1.24-5.82,3.64-12.9,12.21-31.87,2.85-6.31-6.33-11.58-11.06-6.59-5.7,6-8.64,11.27-14.41,17.49-11.78,12.71-29.91,29.61-33.91,31.29-.45.2-1-.55-.88-1.2,5.77-23.3,8.47-28.05,14.91-43.1a6.53,6.53,0,0,0-5.84-9c-6.2,0-7.52,9.32-33.64,29.65-.52.41-.7-.11-.53-.59,2.05-5.87,4-9.14,7.92-14.32,7-9.31-3.65-14.65-8.12-9.57-11.67,13.27-14.19,24.62-46.83,47.78a1,1,0,0,1-1.59-1c5.37-22.63,8.08-30,13.75-40.34a8.47,8.47,0,0,0,1-3,6.68,6.68,0,0,0-6.56-7.49c-6.84,0-9.66,11.09-28.41,25a1,1,0,0,1-1.5-1.2c15.36-31.47,22.11-42.33,46-83.21,5.22-8.91-5-15-10.86-5.39-27.91,45.83-32.68,52.28-78.32,114-8.71,11.78-8.91,12.63-10.65,12.63-1.38,0-2.91-1.16-4.19-1.92-9.33-5.5-12.21-8.29-21.28-15.33-.71-.55-.08-2,.74-2,1.25,0,6.58,1.85,7.75,2.28,6.77,2.43,12.15,6.94,16.56,2.38,1.44-1.48,1.87-3.35,2.43-5.72,1.37-5.86.88-7.64,7.32-20.5,5.62-11.26,7.69-15.21,7.88-17.19a6.67,6.67,0,0,0-6.61-7.31c-3.61,0-13,6.31-22,10.18-10.29,4.45-110.88,44.94-114,46.07-3.91,1.4-13.48,4.61-19.55,6.68a1.67,1.67,0,0,1-2-2.22c.28-.94.6-1.91.94-2.88h0v0c.14-.41,2.18-5.51,5.57-13.87,47-18.09,98.33-37.66,116.28-43.59.05,0,5.86-2.07,6.64-2.45a6.51,6.51,0,0,0,3.24-8.2c-22.29-50.87-24.46-56.23-48.1-122.41-2.71-7.6-9.62-6.24-11.81-.92-18,43.8-58,138.25-73.86,175.55L0,219.23v4.82l13.34-5.15c-2.61,6.15-4.12,9.68-4.12,9.68h0c-1.27,3-2.66,6-3.71,8.14-2.44,4.88.87,8.74,5.82,8.74,4,0,15-6.34,29.34-12.86,8.89-4,108.67-44.36,113.92-46.35A118.43,118.43,0,0,1,167.16,182a2.58,2.58,0,0,1,2.54,1c.74,1,.29,1.55-1,6.08-2.87,9.67-4.44,14.62-8.79,22a6.93,6.93,0,0,1-5.94,3.39,51.55,51.55,0,0,1-9.79-1.39c-5.67-1.42-8.48-3.15-11-3.15-5.31,0-7.35,7-3,10,8.13,5.49,13.64,8,22.07,17,7.63,8.13,9.1,9.35,12.15,9.35a6.51,6.51,0,0,0,5.42-2.81s72.48-108.17,73.91-110.32c1.1-1.67,2.47-.93,1.76.54-12.37,25.41-17.4,32.78-40.77,71.83a6.66,6.66,0,0,0,7.64,9.71c2-.6,3-1.75,5-3.91,7.65-8,9.42-12,23.54-22.3a1.63,1.63,0,0,1,2.56,1.66c-3.59,16.36-9,24.6-14.95,41.56a6.67,6.67,0,0,0,9.43,8c4.24-2.25,23.4-30,44.79-46.1a1,1,0,0,1,1.46,1.15,49.89,49.89,0,0,1-6.76,12.38c-3.55,5,0,9.64,4.86,9.64,7,0,9.2-14.07,33.86-29.29a.87.87,0,0,1,1.35.93c-6.45,34.48-19.46,43.66-15,50.59,2.12,3.3,7.41,3.8,11.1-.58,21.29-25.31,47.06-49.34,48.34-49.34a.91.91,0,0,1,.87,1.11c-3.31,13.41-5.52,17.64-11.08,29-2.8,5.71,2.45,10.26,8.94,6.11,7.14-4.58,10.85-6.81,19.86-8.46a2.45,2.45,0,0,1,2.85,2.55,27,27,0,0,1-1.05,3.62h0l-.09.22q-.37,1.06-.81,2.1l-.19.45-3.18,8c-58.29,22.37-130.79,50.09-178.71,68-5.94,2.22-6.64,8.14.51,11.1,90,37.3,122.59,53.47,126,53.47a5.16,5.16,0,0,0,4.95-2.87c32.71-79.86,8.63-21.27,48.42-117.79.68-1.64,1.28-3.09,2-4.39l2-4.25L400,231V226l-14,5.36ZM92.42,52.12c1.3-2.84,3.76-3.23,5.12-.13,17,38.41,25.57,59.45,41.57,106.36,1,3,.94,3.75-.85,4.55C112.55,174.38,67.78,192.42,25.9,209,40.54,173,72,96.5,92.42,52.12ZM370.09,254.5h0C358.85,283,346.77,309.17,325.3,355.34a3.33,3.33,0,0,1-3.75,1.27c-53-21-58.89-24.18-110.65-47.66a1.42,1.42,0,0,1-.06-2.73c41.22-16.88,108.48-43.46,164.74-65.6Z" fill="#fff"/></svg>